<svg width="400px" height="300px" viewBox="0 0 400 300">
	<path fill="#D81F26" d="M297.66,189.072c4.941,0.367,10.066,0.916,14.824,1.102v-87.847H297.66V189.072z M56.088,156.314l-19.397-54.169H22.415v95.712
	c4.941-0.549,10.064-1.465,14.823-2.012v-52.159l17.386,50.147c5.491-0.549,10.798-1.102,16.288-1.646v-90.042H56.088V156.314z
	M85.737,190.719c13.726-1.096,27.816-2.379,41.726-3.109v-14.824c-8.968,0.549-17.751,1.1-26.719,1.648v-22.328
	c5.672,0,13.542-0.365,20.313-0.365v-14.824c-5.49,0-14.092,0-20.313,0.365v-20.131h26.719v-14.824H85.737V190.719z
	M136.978,117.151h15.739v68.994c4.941-0.365,10.066-0.365,14.824-0.549v-68.812h15.738v-14.641h-46.302V117.151z M192.98,185.596
	h14.823v-34.406h20.498v-14.64h-20.313v-19.398h26.9v-14.824h-41.91L192.98,185.596L192.98,185.596z M378.916,102.145h-16.652
	l-10.799,25.256l-9.699-25.256h-16.471l17.387,45.02l-19.033,44.105c5.123,0.549,10.615,1.1,15.738,1.646l11.162-25.805
	l10.801,28.367c5.672,0.912,11.527,1.461,17.199,2.377c0,0-12.738-33.881-19.215-50.326L378.916,102.145z M259.412,102.145h-14.824
	v84c13.727,0.551,27.27,1.1,40.627,2.016v-14.826c-8.602-0.549-17.201-1.096-25.803-1.463V102.145L259.412,102.145z"/>
</svg>
